# xmcd
#
# Track frame offsets:
#	150
#	20912
#	39205
#	59352
#	82105
#	92885
#	119482
#	139840
#	161402
#	188612
#
# Disc length: 2867 seconds
#
# Revision: 1
# Processed by: cddbd v1.5.1PL0 Copyright (c) Steve Scherf et al.
# Submitted via: CDex 1.50Beta5
#
DISCID=840b310a
DTITLE=沢田聖子 - Folk Songs
DYEAR=1995
DGENRE=
TTITLE0=夢を忘れない
TTITLE1=風になりたい
TTITLE2=すべては君のためだけに
TTITLE3=ささやかなこの人生
TTITLE4=あの星のように
TTITLE5=せつなさを抱きしめて
TTITLE6=本当にサヨナラ
TTITLE7=笑顔が好きだから
TTITLE8=ガンバッテミヨウ!
TTITLE9=In My Heart
EXTD=
EXTT0=
EXTT1=
EXTT2=
EXTT3=
EXTT4=
EXTT5=
EXTT6=
EXTT7=
EXTT8=
EXTT9=
PLAYORDER=
